<?xml version="1.0" encoding="utf-8"?>
<!-- Generator: Adobe Illustrator 23.0.1, SVG Export Plug-In . SVG Version: 6.00 Build 0)  -->
<svg version="1.1" xmlns="http://www.w3.org/2000/svg" xmlns:xlink="http://www.w3.org/1999/xlink" x="0px" y="0px"
	 viewBox="0 0 25 25" style="enable-background:new 0 0 25 25;" xml:space="preserve">
<g id="Capa_2">
</g>
<g id="Capa_1">
	<g>
		<ellipse cx="16.5" cy="12.9" rx="2" ry="2"/>
		<path d="M8,18.9l1.2-1.2l1,2c0,0.1,0.1,0.1,0.1,0.1c0.3,0.4,0.7,0.6,1.2,0.7s0.9-0.1,1.3-0.5l3-2.9c0.4-0.4,0.4-0.9,0-1.3
			l-3.5-3.4c-0.4-0.4-0.9-0.4-1.3,0c-0.4,0.4-0.4,0.9,0,1.3l1.5,1.5l-1.7,1.6l-0.5-1c-0.1-0.3-0.4-0.4-0.7-0.5
			c-0.3-0.1-0.6,0.1-0.8,0.3l-2.1,2.1c-0.4,0.4-0.4,0.9,0,1.3C7.1,19.2,7.7,19.2,8,18.9z"/>
		<path d="M22.3,2.8h-2.9V1.1c0-0.6-0.5-1.1-1.1-1.1H17c-0.6,0-1.1,0.5-1.1,1.1v1.7H9.2V1.1C9.2,0.5,8.7,0,8.1,0H6.7
			C6.1,0,5.6,0.5,5.6,1.1v1.7H2.7C1.2,2.8,0,4,0,5.5v16.4c0,1.5,1.2,2.7,2.7,2.7h19.5c1.5,0,2.7-1.2,2.7-2.7V5.5
			C25,4.1,23.8,2.8,22.3,2.8z M22.6,21.1c0,0.7-0.5,1.2-1.2,1.2H3.6c-0.7,0-1.2-0.5-1.2-1.2V9.2h20.2L22.6,21.1L22.6,21.1z"/>
	</g>
</g>
</svg>
