<?xml version="1.0" encoding="utf-8"?>
<!-- Generator: Adobe Illustrator 23.0.1, SVG Export Plug-In . SVG Version: 6.00 Build 0)  -->
<svg version="1.1" id="Capa_1" xmlns="http://www.w3.org/2000/svg" xmlns:xlink="http://www.w3.org/1999/xlink" x="0px" y="0px"
	 viewBox="0 0 25 25" style="enable-background:new 0 0 25 25;" xml:space="preserve">
<g>
	<g>
		<path d="M8.3,0.5L0.5,8.3c-0.6,0.6-0.6,1.7,0,2.3l13.9,13.9c0.6,0.6,1.7,0.6,2.3,0l7.8-7.8c0.6-0.6,0.6-1.7,0-2.3L10.6,0.5
			C10-0.2,9-0.2,8.3,0.5z M4.4,6.4l2-2c0.1-0.1,0.4-0.1,0.5,0c0.1,0.2,0.1,0.4,0,0.5l-2,2C4.8,7.1,4.5,7.1,4.4,7
			C4.3,6.8,4.2,6.6,4.4,6.4z M20.1,20.1c-0.5,0.5-1.4,0.5-1.9,0c-0.5-0.5-0.5-1.4,0-1.9c0.5-0.5,1.4-0.5,1.9,0
			C20.6,18.6,20.6,19.5,20.1,20.1z M21.1,12.7c0.2,0.2,0.2,0.4,0,0.6l-7.8,7.8c-0.2,0.2-0.4,0.2-0.6,0l-9.8-9.8
			c-0.2-0.2-0.2-0.4,0-0.6l7.8-7.8c0.2-0.2,0.4-0.2,0.6,0L21.1,12.7z"/>
	</g>
	<path d="M19.7,19c0.1,0.1,0.1,0.1,0,0.2l-0.5,0.5c-0.1,0.1-0.1,0.1-0.2,0l-0.5-0.5c-0.1-0.1-0.1-0.1,0-0.2l0.5-0.5
		c0.1-0.1,0.1-0.1,0.2,0L19.7,19z"/>
</g>
</svg>
