<?xml version="1.0" encoding="utf-8"?>
<!-- Generator: Adobe Illustrator 23.0.1, SVG Export Plug-In . SVG Version: 6.00 Build 0)  -->
<svg version="1.1" id="Capa_1" xmlns="http://www.w3.org/2000/svg" xmlns:xlink="http://www.w3.org/1999/xlink" x="0px" y="0px"
	 viewBox="0 0 240 240" style="enable-background:new 0 0 240 240;" xml:space="preserve">
<style type="text/css">
	.st0{fill:#39CCDC;}
</style>
<g>
	<g>
		<path class="st0" d="M238,0H2C0.9,0,0,0.9,0,2v236c0,1.1,0.9,2,2,2h236c1.1,0,2-0.9,2-2V2C240,0.9,239.1,0,238,0z M179.1,163.2
			l-15.6,15.6c-0.8,1.6-3.3,2.5-4.9,2.5s-3.3-0.8-4.9-2.5L120,145.1l-33.6,33.6c-0.8,1.6-3.3,2.5-4.9,2.5s-3.3-0.8-4.9-2.5L61,163.1
			c-2.5-2.5-2.5-7.4,0-9.8l33.6-33.6L60.9,86c-2.5-2.5-2.5-7.4,0-9.8l15.6-15.6c2.5-2.5,7.4-2.5,9.8,0l32.8,33.6l33.6-33.6
			c2.5-2.5,7.4-2.5,9.8,0l15.6,15.6c2.5,2.5,2.5,7.4,0,9.8l-33.6,33.6l34.5,33.6C181.6,155.8,181.6,160.7,179.1,163.2z"/>
	</g>
</g>
</svg>
